<?xml version="1.0" standalone="no"?><svg xmlns="http://www.w3.org/2000/svg" viewBox="0 0 1440 320"><path fill="#232429" fill-opacity="1" d="M0,64L24,96C48,128,96,192,144,192C192,192,240,128,288,133.3C336,139,384,213,432,218.7C480,224,528,160,576,149.3C624,139,672,181,720,176C768,171,816,117,864,117.3C912,117,960,171,1008,202.7C1056,235,1104,245,1152,224C1200,203,1248,149,1296,144C1344,139,1392,181,1416,202.7L1440,224L1440,0L1416,0C1392,0,1344,0,1296,0C1248,0,1200,0,1152,0C1104,0,1056,0,1008,0C960,0,912,0,864,0C816,0,768,0,720,0C672,0,624,0,576,0C528,0,480,0,432,0C384,0,336,0,288,0C240,0,192,0,144,0C96,0,48,0,24,0L0,0Z"></path></svg>