<?xml version="1.0" standalone="no"?><svg xmlns="http://www.w3.org/2000/svg" viewBox="0 0 1440 320"><path fill="#45474f" fill-opacity="1" d="M0,64L24,96C48,128,96,192,144,192C192,192,240,128,288,133.3C336,139,384,213,432,218.7C480,224,528,160,576,149.3C624,139,672,181,720,176C768,171,816,117,864,117.3C912,117,960,171,1008,202.7C1056,235,1104,245,1152,224C1200,203,1248,149,1296,144C1344,139,1392,181,1416,202.7L1440,224L1440,320L1416,320C1392,320,1344,320,1296,320C1248,320,1200,320,1152,320C1104,320,1056,320,1008,320C960,320,912,320,864,320C816,320,768,320,720,320C672,320,624,320,576,320C528,320,480,320,432,320C384,320,336,320,288,320C240,320,192,320,144,320C96,320,48,320,24,320L0,320Z"></path></svg>