<?xml version="1.0" standalone="no"?><svg xmlns="http://www.w3.org/2000/svg" viewBox="0 0 1440 320"><path fill="#232429" fill-opacity="1" d="M0,160L34.3,176C68.6,192,137,224,206,202.7C274.3,181,343,107,411,96C480,85,549,139,617,160C685.7,181,754,171,823,149.3C891.4,128,960,96,1029,101.3C1097.1,107,1166,149,1234,144C1302.9,139,1371,85,1406,58.7L1440,32L1440,320L1405.7,320C1371.4,320,1303,320,1234,320C1165.7,320,1097,320,1029,320C960,320,891,320,823,320C754.3,320,686,320,617,320C548.6,320,480,320,411,320C342.9,320,274,320,206,320C137.1,320,69,320,34,320L0,320Z"></path></svg>